# xmcd
#
# Track frame offsets:
#	150
#	16145
#	36347
#
# Disc length: 617 seconds
#
# Revision: 0
# Processed by: cddbd v1.4PL0 Copyright (c) Steve Scherf et al.
# Submitted via: EasyCDDAExtractor 4.6.0.1
#
DISCID=1a026703
DTITLE=Otis Lee Crenshaw and The Black Liars - London, Not Tennessee
DYEAR=2001
DGENRE=Country Comedy
TTITLE0=Uncle Muncie
TTITLE1=Trailerland
TTITLE2=Women Call It Stalking
EXTD=
EXTT0=
EXTT1=
EXTT2=
PLAYORDER=
